<?xml version="1.0" encoding="utf-8"?>
<!-- Generator: Adobe Illustrator 25.2.0, SVG Export Plug-In . SVG Version: 6.00 Build 0)  -->
<svg version="1.2" baseProfile="tiny" id="Layer_1" xmlns="http://www.w3.org/2000/svg" xmlns:xlink="http://www.w3.org/1999/xlink"
	 x="0px" y="0px" viewBox="0 0 431 85" overflow="visible" xml:space="preserve">
<g>
	<path d="M304.6,1.9c4.2,0,8.5,0,12.7,0c-4.6,21.5-9.1,43-13.7,64.5c-4.2-0.1-8.5-0.1-12.7,0.1C295.4,44.9,300,23.4,304.6,1.9z"/>
	<path fill="#FFFFFF" d="M363.2,1.8c4.3,0.2,8.5,0.1,12.8,0.1c-1.2,4.5-1.9,9.2-3,13.7c-4.2,0-8.5,0-12.8,0
		C361.2,11,362.1,6.4,363.2,1.8z"/>
	<path fill="#0082C8" d="M15.8,20.9c12.9,0.1,25.8,0,38.7,0c2.3,0,5,0.2,6.3,2.4c1.4,2.5,0.5,5.4,0,8c-2,9-3.8,18.1-5.8,27.1
		c-0.8,4.2-4.3,7.8-8.7,7.9c-7.8,0.2-15.5,0-23.2,0.1c0.8-3.6,1.5-7.2,2.3-10.8c5.4-0.1,10.7,0.2,16.1-0.1c1.9-0.2,1.8-2.6,2.3-4
		c1.2-6,2.8-12,3.7-18c0.1-2.2-2.8-1.1-4.1-1.4c-5.8,0-11.6,0.1-17.4,0c-3.9,17.8-7.7,35.6-11.5,53.4c-3.9-0.1-7.9-0.1-11.8,0.1H1.9
		C6.5,64,11.1,42.4,15.8,20.9z"/>
	<path fill="#0082C8" d="M73.7,20.9c12.6,0.1,25.3,0,37.9,0.1c2.3,0,4.9,0.5,6.1,2.7c1,2.5,0.2,5.2-0.3,7.7
		c-2.6,11.7-4.9,23.4-7.5,35.1c-13.8-0.3-27.6,0-41.3-0.2c-2.5,0-5-2-4.9-4.6c0.4-5.4,2-10.6,3-15.9c0.6-3.5,2.9-7.1,6.8-7.3
		c8.5-0.3,17.1,0,25.6-0.1c-0.6,2.6-1.1,5.2-1.8,7.9c-5.9-0.1-11.8-0.2-17.7,0c-2.2,2.4-2.2,6.3-2.4,9.4c7.5,0.1,15.1,0,22.6,0
		c1.8-7.8,3.2-15.7,5.1-23.4c-0.7-1.1-1.9-1.6-3.3-1.4c-10,0-20.1,0-30.1,0C72.2,27.5,72.8,24.1,73.7,20.9z"/>
	<path fill="#0082C8" d="M128.9,20.8c4.1,0.2,8.1,0.1,12.2,0.1c-0.4,1.5-0.9,3-1.3,4.5c2.2-2,4.5-4.5,7.7-4.5c7.3-0.1,14.7,0,22,0
		c2.2,0,4.9,0.3,6.2,2.5c1.1,2.4,0.5,5.2,0,7.7c-2.6,11.8-4.9,23.6-7.6,35.4c-4.1-0.1-8.3-0.2-12.4,0c2.1-11.4,4.8-22.7,7.1-34.1
		c-6-1.2-12.2-0.2-18.3-0.6c-1.9,0.2-5-0.8-5.7,1.8c-2.6,10.9-4.6,22-7.1,32.9c-4.2-0.2-8.4-0.2-12.6,0
		C122.4,51.2,125.4,36,128.9,20.8z"/>
	<g>
		<path fill="#0082C8" d="M193.9,21c10.9-0.1,21.8,0,32.7-0.1c2.5-0.1,5.6,0.2,7,2.6c1.2,3,0,6.1-0.5,9.1c-2,9-3.7,18.1-5.9,27
			c-0.9,3.9-4.6,6.8-8.6,6.6c-10.7,0.1-21.4,0-32.1,0c-2.1,0-4.5,0-6.1-1.6c-2-1.9-1.4-4.8-0.9-7.2c2.1-9.7,4-19.4,6.2-29.1
			C186.4,24.5,189.7,21,193.9,21z M197.3,33.3c-1.6,7.1-3.1,14.3-4.5,21.4c5.8,1,11.8,0.2,17.7,0.5c1.9-0.1,5.1,0.6,5.5-2.1
			c1.5-6.9,3.1-13.9,4.3-20.9c-5.9-1.1-11.9-0.2-17.8-0.5C200.8,32,197.9,31.1,197.3,33.3z"/>
	</g>
	<path d="M245.4,23.3c1.8-1.9,4.5-2.4,7.1-2.4c12.7,0,25.5,0,38.2,0c-0.8,3.4-1.4,6.8-2.3,10.2c-10.3-0.1-20.6,0-30.9,0
		c-4.1-0.2-3.2,5.1-4.3,7.6c1,0.6,2.1,0.9,3.3,0.9c7.7,0,15.3,0,23-0.1c2.7-0.2,6.3,0.8,6.5,4c-0.4,5.1-2,10.1-2.9,15.1
		c-0.6,3.9-3.7,7.5-7.8,7.6c-13.5,0.3-26.9-0.2-40.4,0.2c0.6-3.6,1.4-7.1,2.2-10.6c10.1,0.2,20.3,0,30.4,0.1
		c4.6,0.7,4.1-5.5,4.4-8.5c-9.1-0.2-18.3,0-27.4-0.1c-2.5,0.1-5-2.2-4.5-4.8c0.6-3.7,1.5-7.2,2.2-10.9
		C242.8,28.8,243.1,25.5,245.4,23.3z"/>
	<path d="M334.7,20.9c4.6-0.1,9.1,0.2,13.7-0.2c-6.2,6.6-13.6,12-19.8,18.6c4.1,0,8.5-0.9,12.5,0.5c3.9,2,3.1,7,2.2,10.5
		c-1.2,5.4-2.2,10.8-3.5,16.1c-4.2-0.2-8.4-0.1-12.6-0.1c1.2-5.3,2.3-10.6,3.3-15.9c0.7-1.3-0.6-3-2-2.8c-6.3,0-12.5,0-18.8,0
		c0.4-1.6,0.7-3.2,1.1-4.8C318.9,35.7,326.6,28,334.7,20.9z"/>
	<path d="M359.1,20.8c4.2,0.2,8.5,0,12.7,0.1c-3.5,15.1-6.3,30.4-9.9,45.5c-4.2-0.2-8.4-0.1-12.5-0.1
		C352.6,51.2,355.8,36,359.1,20.8z"/>
	<path d="M381.5,21.2c3.8-0.8,8.3-0.1,12.3-0.3c-0.4,1.5-0.9,3-1.3,4.5c2.2-1.9,4.3-4.3,7.4-4.4c7.5-0.1,15.1,0,22.7-0.1
		c2.3-0.1,4.7,0.6,6,2.6c0.9,2.2,0.5,4.7,0,6.9c-2.7,12-5,24-7.8,36c-4.2-0.2-8.3-0.1-12.5-0.1c2.2-10.3,4.3-20.7,6.6-31
		c0.4-1.3,1-3.9-1.4-3.6c-6.7,0-13.3-0.1-20,0c-1.9-0.1-2.2,2.1-2.5,3.5c-2.1,10.3-4.4,20.6-6.5,30.9c-4.2,0-8.5-0.1-12.7,0.1
		C374.9,51.3,378.1,36.3,381.5,21.2z"/>
</g>
</svg>
